<svg width="13" height="10" viewBox="0 0 13 10" fill="none" xmlns="http://www.w3.org/2000/svg">
<path d="M5.27475 9.63078C5.21192 9.57428 4.94325 9.36094 4.72225 9.1622C3.33233 7.99708 1.05733 4.95762 0.362917 3.36678C0.251333 3.12518 0.0151667 2.51437 0 2.18802C0 1.8753 0.078 1.5772 0.236167 1.29274C0.457167 0.938139 0.804917 0.653678 1.2155 0.497808C1.50042 0.397467 2.353 0.241598 2.36817 0.241598C3.30092 0.0857282 4.8165 0 6.49133 0C8.08708 0 9.54092 0.0857282 10.4878 0.213346C10.5029 0.227959 11.5624 0.383829 11.9253 0.554311C12.5883 0.867024 13 1.47784 13 2.13151V2.18802C12.9838 2.61374 12.5721 3.50901 12.5569 3.50901C11.8614 5.01413 9.698 7.98344 8.26042 9.17681C8.26042 9.17681 7.891 9.51291 7.66025 9.65904C7.32875 9.88699 6.91817 10 6.50758 10C6.04933 10 5.6225 9.87238 5.27475 9.63078Z" fill="white"/>
</svg>
