<svg width="25" height="25" viewBox="0 0 25 25" fill="none" xmlns="http://www.w3.org/2000/svg">
<path fill-rule="evenodd" clip-rule="evenodd" d="M12.07 0.829956C18.7254 0.829956 24.14 6.24456 24.14 12.9C24.14 19.5554 18.7254 24.97 12.07 24.97C5.4146 24.97 0 19.5554 0 12.9C0 6.24456 5.4146 0.829956 12.07 0.829956ZM12.07 2.64046C6.41279 2.64046 1.8105 7.24275 1.8105 12.9C1.8105 18.5572 6.41279 23.1595 12.07 23.1595C17.7272 23.1595 22.3295 18.5572 22.3295 12.9C22.3295 7.24275 17.7272 2.64046 12.07 2.64046ZM12.0747 16.2746C12.7422 16.2746 13.2817 16.8141 13.2817 17.4816C13.2817 18.1491 12.7422 18.6886 12.0747 18.6886C11.4072 18.6886 10.8617 18.1491 10.8617 17.4816C10.8617 16.8141 11.3964 16.2746 12.0626 16.2746H12.0747ZM12.0629 7.41293C12.5626 7.41293 12.9681 7.81849 12.9681 8.31818V13.6519C12.9681 14.1516 12.5626 14.5572 12.0629 14.5572C11.5632 14.5572 11.1576 14.1516 11.1576 13.6519V8.31818C11.1576 7.81849 11.5632 7.41293 12.0629 7.41293Z" fill="#8B8C91"/>
</svg>
