<svg width="23" height="23" viewBox="0 0 23 23" fill="none" xmlns="http://www.w3.org/2000/svg">
<path fill-rule="evenodd" clip-rule="evenodd" d="M22.16 18.0593C22.16 21.7351 15.8366 22.16 11.0814 22.16L10.7411 22.1598C7.71152 22.1539 0 22.0014 0 18.037C0 14.4362 6.06931 13.955 10.7883 13.9369L11.4217 13.9366C14.4511 13.9424 22.16 14.0949 22.16 18.0593ZM11.0814 15.6092C5.1203 15.6092 2.09848 16.4255 2.09848 18.037C2.09848 19.663 5.1203 20.4872 11.0814 20.4872C17.0411 20.4872 20.0615 19.6708 20.0615 18.0593C20.0615 16.4333 17.0411 15.6092 11.0814 15.6092ZM11.0814 0C15.1776 0 18.5086 2.65647 18.5086 5.92185C18.5086 9.18724 15.1776 11.8426 11.0814 11.8426H11.0366C6.94878 11.8326 3.63737 9.17497 3.65132 5.91851C3.65132 2.65647 6.98376 0 11.0814 0ZM11.0814 1.59254C8.08616 1.59254 5.64909 3.53415 5.64909 5.92185C5.63933 8.30175 8.05818 10.2422 11.0408 10.2512L11.0814 11.0474V10.2512C14.0752 10.2512 16.5109 8.30844 16.5109 5.92185C16.5109 3.53415 14.0752 1.59254 11.0814 1.59254Z" fill="#8B8C91"/>
</svg>
