<svg width="25" height="25" viewBox="0 0 25 25" fill="none" xmlns="http://www.w3.org/2000/svg">
<path fill-rule="evenodd" clip-rule="evenodd" d="M11.4399 0.0436793C11.9389 0.0436793 12.3438 0.448 12.3438 0.94618C12.3438 1.44436 11.9389 1.84868 11.4399 1.84868H6.93361C3.81933 1.84868 1.80782 3.97858 1.80782 7.27452V17.279C1.80782 20.575 3.81933 22.7049 6.93361 22.7049H17.5684C20.6827 22.7049 22.6954 20.575 22.6954 17.279V12.432C22.6954 11.9338 23.1004 11.5295 23.5993 11.5295C24.0983 11.5295 24.5032 11.9338 24.5032 12.432V17.279C24.5032 21.6038 21.7156 24.5099 17.5684 24.5099H6.93361C2.78646 24.5099 0 21.6038 0 17.279V7.27452C0 2.94973 2.78646 0.0436793 6.93361 0.0436793H11.4399ZM21.9369 1.10093L23.4036 2.56539C24.1183 3.27776 24.5112 4.22479 24.51 5.23318C24.51 6.24157 24.1171 7.1874 23.4036 7.89857L14.3536 16.9344C13.6896 17.5974 12.8049 17.9633 11.8649 17.9633H7.35013C7.10668 17.9633 6.87286 17.8646 6.70293 17.6901C6.53299 17.5168 6.44019 17.2822 6.44622 17.0379L6.55951 12.4905C6.58241 11.5856 6.94759 10.7348 7.58876 10.0934H7.58997L16.5965 1.10093C18.0693 -0.367139 20.4641 -0.367139 21.9369 1.10093ZM15.8546 4.39325L8.8675 11.3702C8.55535 11.6818 8.37818 12.0958 8.36733 12.535L8.27694 16.1583H11.8649C12.3229 16.1583 12.7519 15.9814 13.0761 15.6577L20.1054 8.63741L15.8546 4.39325ZM17.8741 2.37767L17.1321 3.11651L21.3829 7.36188L22.1261 6.62183C22.4973 6.2512 22.7022 5.75783 22.7022 5.23318C22.7022 4.70732 22.4973 4.21275 22.1261 3.84213L20.6593 2.37767C19.8916 1.61355 18.643 1.61355 17.8741 2.37767Z" fill="white"/>
</svg>
